<svg width="898" height="807" viewBox="0 0 898 807" fill="none" xmlns="http://www.w3.org/2000/svg">
<path d="M448.5 303L535.536 353.25V453.75L448.5 504L361.464 453.75V353.25L448.5 303Z" stroke="#FF0000"/>
<path d="M535.5 152L622.536 202.25V302.75L535.5 353L448.464 302.75V202.25L535.5 152Z" stroke="#FF0000"/>
<path d="M710.5 152L797.536 202.25V302.75L710.5 353L623.464 302.75V202.25L710.5 152Z" stroke="#FF0000"/>
<path d="M623.5 1L710.536 51.25V151.75L623.5 202L536.464 151.75V51.25L623.5 1Z" stroke="#FF0000"/>
<path d="M448.5 1L535.536 51.25V151.75L448.5 202L361.464 151.75V51.25L448.5 1Z" stroke="#FF0000"/>
<path d="M535.5 454L622.536 504.25V604.75L535.5 655L448.464 604.75V504.25L535.5 454Z" stroke="#FF0000"/>
<path d="M623.5 605L710.536 655.25V755.75L623.5 806L536.464 755.75V655.25L623.5 605Z" stroke="#FF0000"/>
<path d="M449.5 605L536.536 655.25V755.75L449.5 806L362.464 755.75V655.25L449.5 605Z" stroke="#FF0000"/>
<path d="M274.5 303L361.536 353.25V453.75L274.5 504L187.464 453.75V353.25L274.5 303Z" stroke="#FF0000"/>
<path d="M100.5 303L187.536 353.25V453.75L100.5 504L13.4644 453.75V353.25L100.5 303Z" stroke="#FF0000"/>
<path d="M187.5 152L274.536 202.25V302.75L187.5 353L100.464 302.75V202.25L187.5 152Z" stroke="#FF0000"/>
<path d="M361.5 152L448.536 202.25V302.75L361.5 353L274.464 302.75V202.25L361.5 152Z" stroke="#FF0000"/>
<path d="M274.5 1L361.536 51.25V151.75L274.5 202L187.464 151.75V51.25L274.5 1Z" stroke="#FF0000"/>
<path d="M361.5 454L448.536 504.25V604.75L361.5 655L274.464 604.75V504.25L361.5 454Z" stroke="#FF0000"/>
<path d="M275.5 605L362.536 655.25V755.75L275.5 806L188.464 755.75V655.25L275.5 605Z" stroke="#FF0000"/>
<path d="M187.5 454L274.536 504.25V604.75L187.5 655L100.464 604.75V504.25L187.5 454Z" stroke="#FF0000"/>
<path d="M622.5 303L709.536 353.25V453.75L622.5 504L535.464 453.75V353.25L622.5 303Z" stroke="#FF0000"/>
<path d="M797.5 303L884.536 353.25V453.75L797.5 504L710.464 453.75V353.25L797.5 303Z" stroke="#FF0000"/>
<path d="M709.5 454L796.536 504.25V604.75L709.5 655L622.464 604.75V504.25L709.5 454Z" stroke="#FF0000"/>
</svg>
