<svg width="1260" height="1144" viewBox="0 0 1260 1144" fill="none" xmlns="http://www.w3.org/2000/svg">
<path d="M720 312L810 364V468L720 520L630 468V364L720 312Z" fill="#D9D9D9"/>
<path d="M900 312L990 364V468L900 520L810 468V364L900 312Z" fill="#D9D9D9"/>
<path d="M990 468L1080 520V624L990 676L900 624V520L990 468Z" fill="#D9D9D9"/>
<path d="M1170 468L1260 520V624L1170 676L1080 624V520L1170 468Z" fill="#D9D9D9"/>
<path d="M540 312L630 364V468L540 520L450 468V364L540 312Z" fill="#D9D9D9"/>
<path d="M360 312L450 364V468L360 520L270 468V364L360 312Z" fill="#D9D9D9"/>
<path d="M1080 312L1170 364V468L1080 520L990 468V364L1080 312Z" fill="#D9D9D9"/>
<path d="M450 468L540 520V624L450 676L360 624V520L450 468Z" fill="#D9D9D9"/>
<path d="M360 624L450 676V780L360 832L270 780V676L360 624Z" fill="#D9D9D9"/>
<path d="M630 468L720 520V624L630 676L540 624V520L630 468Z" fill="#D9D9D9"/>
<path d="M540 624L630 676V780L540 832L450 780V676L540 624Z" fill="#D9D9D9"/>
<path d="M450 780L540 832V936L450 988L360 936V832L450 780Z" fill="#D9D9D9"/>
<path d="M630 156L720 208V312L630 364L540 312V208L630 156Z" fill="#D9D9D9"/>
<path d="M810 468L900 520V624L810 676L720 624V520L810 468Z" fill="#D9D9D9"/>
<path d="M900 624L990 676V780L900 832L810 780V676L900 624Z" fill="#D9D9D9"/>
<path d="M810 780L900 832V936L810 988L720 936V832L810 780Z" fill="#D9D9D9"/>
<path d="M720 624L810 676V780L720 832L630 780V676L720 624Z" fill="#D9D9D9"/>
<path d="M630 780L720 832V936L630 988L540 936V832L630 780Z" fill="#D9D9D9"/>
<path d="M360 208L450 156V52L360 -1.01328e-05L270 52V156L360 208Z" fill="#D9D9D9"/>
<path d="M270 364L360 312V208L270 156L180 208V312L270 364Z" fill="#D9D9D9"/>
<path d="M270 676L360 624V520L270 468L180 520V624L270 676Z" fill="#D9D9D9"/>
<path d="M90 676L180 624V520L90 468L0 520V624L90 676Z" fill="#D9D9D9"/>
<path d="M180 520L270 468V364L180 312L90 364V468L180 520Z" fill="#D9D9D9"/>
<path d="M990 364L1080 312V208L990 156L900 208V312L990 364Z" fill="#D9D9D9"/>
<path d="M450 364L540 312V208L450 156L360 208V312L450 364Z" fill="#D9D9D9"/>
<path d="M540 208L630 156V52L540 -1.01328e-05L450 52V156L540 208Z" fill="#D9D9D9"/>
<path d="M900 208L990 156V52L900 -1.01328e-05L810 52V156L900 208Z" fill="#D9D9D9"/>
<path d="M720 208L810 156V52L720 -1.01328e-05L630 52V156L720 208Z" fill="#D9D9D9"/>
<path d="M1080 832L1170 780V676L1080 624L990 676V780L1080 832Z" fill="#D9D9D9"/>
<path d="M360 936L450 988V1092L360 1144L270 1092V988L360 936Z" fill="#D9D9D9"/>
<path d="M270 780L360 832V936L270 988L180 936V832L270 780Z" fill="#D9D9D9"/>
<path d="M180 624L270 676V780L180 832L90 780V676L180 624Z" fill="#D9D9D9"/>
<path d="M990 780L1080 832V936L990 988L900 936V832L990 780Z" fill="#D9D9D9"/>
<path d="M540 936L630 988V1092L540 1144L450 1092V988L540 936Z" fill="#D9D9D9"/>
<path d="M900 936L990 988V1092L900 1144L810 1092V988L900 936Z" fill="#D9D9D9"/>
<path d="M720 936L810 988V1092L720 1144L630 1092V988L720 936Z" fill="#D9D9D9"/>
<path d="M810 156L900 208V312L810 364L720 312V208L810 156Z" fill="#D9D9D9"/>
<path d="M900 312L990 364V468L900 520L810 468V364L900 312Z" fill="#D9D9D9"/>
</svg>
