<svg width="1473" height="1473" viewBox="0 0 1473 1473" fill="none" xmlns="http://www.w3.org/2000/svg">
<rect width="1473" height="1473" fill="white"/>
<path d="M454.5 208L541.536 258.25V358.75L454.5 409L367.464 358.75V258.25L454.5 208Z" stroke="#FF0000"/>
<path d="M798.5 907L885.536 957.25V1057.75L798.5 1108L711.464 1057.75V957.25L798.5 907Z" stroke="#FF0000"/>
<path d="M1159.5 179L1246.54 229.25V329.75L1159.5 380L1072.46 329.75V229.25L1159.5 179Z" stroke="#FF0000"/>
<path d="M541.5 57L628.536 107.25V207.75L541.5 258L454.464 207.75V107.25L541.5 57Z" stroke="#FF0000"/>
<path d="M885.5 756L972.536 806.25V906.75L885.5 957L798.464 906.75V806.25L885.5 756Z" stroke="#FF0000"/>
<path d="M1060.5 756L1147.54 806.25V906.75L1060.5 957L973.464 906.75V806.25L1060.5 756Z" stroke="#FF0000"/>
<path d="M973.5 605L1060.54 655.25V755.75L973.5 806L886.464 755.75V655.25L973.5 605Z" stroke="#FF0000"/>
<path d="M798.5 605L885.536 655.25V755.75L798.5 806L711.464 755.75V655.25L798.5 605Z" stroke="#FF0000"/>
<path d="M541.5 359L628.536 409.25V509.75L541.5 560L454.464 509.75V409.25L541.5 359Z" stroke="#FF0000"/>
<path d="M885.5 1058L972.536 1108.25V1208.75L885.5 1259L798.464 1208.75V1108.25L885.5 1058Z" stroke="#FF0000"/>
<path d="M973.5 1209L1060.54 1259.25V1359.75L973.5 1410L886.464 1359.75V1259.25L973.5 1209Z" stroke="#FF0000"/>
<path d="M799.5 1209L886.536 1259.25V1359.75L799.5 1410L712.464 1359.75V1259.25L799.5 1209Z" stroke="#FF0000"/>
<path d="M280.5 208L367.536 258.25V358.75L280.5 409L193.464 358.75V258.25L280.5 208Z" stroke="#FF0000"/>
<path d="M624.5 907L711.536 957.25V1057.75L624.5 1108L537.464 1057.75V957.25L624.5 907Z" stroke="#FF0000"/>
<path d="M450.5 907L537.536 957.25V1057.75L450.5 1108L363.464 1057.75V957.25L450.5 907Z" stroke="#FF0000"/>
<path d="M537.5 756L624.536 806.25V906.75L537.5 957L450.464 906.75V806.25L537.5 756Z" stroke="#FF0000"/>
<path d="M367.5 57L454.536 107.25V207.75L367.5 258L280.464 207.75V107.25L367.5 57Z" stroke="#FF0000"/>
<path d="M711.5 756L798.536 806.25V906.75L711.5 957L624.464 906.75V806.25L711.5 756Z" stroke="#FF0000"/>
<path d="M624.5 605L711.536 655.25V755.75L624.5 806L537.464 755.75V655.25L624.5 605Z" stroke="#FF0000"/>
<path d="M367.5 359L454.536 409.25V509.75L367.5 560L280.464 509.75V409.25L367.5 359Z" stroke="#FF0000"/>
<path d="M711.5 1058L798.536 1108.25V1208.75L711.5 1259L624.464 1208.75V1108.25L711.5 1058Z" stroke="#FF0000"/>
<path d="M625.5 1209L712.536 1259.25V1359.75L625.5 1410L538.464 1359.75V1259.25L625.5 1209Z" stroke="#FF0000"/>
<path d="M537.5 1058L624.536 1108.25V1208.75L537.5 1259L450.464 1208.75V1108.25L537.5 1058Z" stroke="#FF0000"/>
<path d="M628.5 208L715.536 258.25V358.75L628.5 409L541.464 358.75V258.25L628.5 208Z" stroke="#FF0000"/>
<path d="M972.5 907L1059.54 957.25V1057.75L972.5 1108L885.464 1057.75V957.25L972.5 907Z" stroke="#FF0000"/>
<path d="M1147.5 907L1234.54 957.25V1057.75L1147.5 1108L1060.46 1057.75V957.25L1147.5 907Z" stroke="#FF0000"/>
<path d="M1059.5 1058L1146.54 1108.25V1208.75L1059.5 1259L972.464 1208.75V1108.25L1059.5 1058Z" stroke="#FF0000"/>
</svg>
